<mxfile host="app.diagrams.net" modified="2023-11-14T10:40:42.169Z" agent="Mozilla/5.0 (X11; Linux x86_64) AppleWebKit/537.36 (KHTML, like Gecko) Chrome/119.0.0.0 Safari/537.36" etag="jd6z4UBsDihqVkySoAiD" version="22.1.0" type="github">
  <diagram name="Page-1" id="NH5xlf5zU_z2bjXYfcNW">
    <mxGraphModel dx="1383" dy="803" grid="1" gridSize="10" guides="1" tooltips="1" connect="1" arrows="1" fold="1" page="1" pageScale="1" pageWidth="827" pageHeight="1169" math="0" shadow="0">
      <root>
        <mxCell id="0" />
        <mxCell id="1" parent="0" />
        <mxCell id="uv9dlAFqdQVn1udtKM22-1" value="" style="rounded=0;whiteSpace=wrap;html=1;fillColor=#ffe6cc;strokeColor=#d79b00;" parent="1" vertex="1">
          <mxGeometry x="40" y="40" width="720" height="430" as="geometry" />
        </mxCell>
        <mxCell id="uv9dlAFqdQVn1udtKM22-2" value="PXE - Hypervisor" style="text;strokeColor=none;fillColor=none;html=1;fontSize=24;fontStyle=1;verticalAlign=middle;align=center;" parent="1" vertex="1">
          <mxGeometry x="365" y="50" width="100" height="40" as="geometry" />
        </mxCell>
        <mxCell id="uv9dlAFqdQVn1udtKM22-3" style="edgeStyle=orthogonalEdgeStyle;rounded=0;orthogonalLoop=1;jettySize=auto;html=1;entryX=0.1;entryY=0.613;entryDx=0;entryDy=0;entryPerimeter=0;strokeWidth=2;" parent="1" source="uv9dlAFqdQVn1udtKM22-5" target="uv9dlAFqdQVn1udtKM22-10" edge="1">
          <mxGeometry relative="1" as="geometry">
            <Array as="points">
              <mxPoint x="280" y="393" />
            </Array>
          </mxGeometry>
        </mxCell>
        <mxCell id="uv9dlAFqdQVn1udtKM22-4" style="edgeStyle=orthogonalEdgeStyle;rounded=0;orthogonalLoop=1;jettySize=auto;html=1;exitX=0.25;exitY=1;exitDx=0;exitDy=0;strokeWidth=2;" parent="1" source="uv9dlAFqdQVn1udtKM22-5" target="uv9dlAFqdQVn1udtKM22-15" edge="1">
          <mxGeometry relative="1" as="geometry">
            <Array as="points">
              <mxPoint x="190" y="270" />
              <mxPoint x="190" y="345" />
              <mxPoint x="150" y="345" />
            </Array>
          </mxGeometry>
        </mxCell>
        <mxCell id="uv9dlAFqdQVn1udtKM22-5" value="" style="rounded=0;whiteSpace=wrap;html=1;fillColor=#1ba1e2;fontColor=#ffffff;strokeColor=#006EAF;" parent="1" vertex="1">
          <mxGeometry x="130" y="160" width="200" height="110" as="geometry" />
        </mxCell>
        <mxCell id="uv9dlAFqdQVn1udtKM22-6" value="RTS-liveboot" style="text;strokeColor=none;fillColor=none;html=1;fontSize=24;fontStyle=1;verticalAlign=middle;align=center;" parent="1" vertex="1">
          <mxGeometry x="180" y="170" width="100" height="40" as="geometry" />
        </mxCell>
        <mxCell id="uv9dlAFqdQVn1udtKM22-7" style="edgeStyle=orthogonalEdgeStyle;rounded=0;orthogonalLoop=1;jettySize=auto;html=1;entryX=0.943;entryY=0.56;entryDx=0;entryDy=0;entryPerimeter=0;strokeWidth=2;" parent="1" source="uv9dlAFqdQVn1udtKM22-8" target="uv9dlAFqdQVn1udtKM22-10" edge="1">
          <mxGeometry relative="1" as="geometry">
            <Array as="points">
              <mxPoint x="580" y="384" />
            </Array>
          </mxGeometry>
        </mxCell>
        <mxCell id="uv9dlAFqdQVn1udtKM22-8" value="" style="rounded=0;whiteSpace=wrap;html=1;fillColor=#1ba1e2;fontColor=#ffffff;strokeColor=#006EAF;" parent="1" vertex="1">
          <mxGeometry x="480" y="155" width="200" height="110" as="geometry" />
        </mxCell>
        <mxCell id="uv9dlAFqdQVn1udtKM22-9" value="RTS-pxeboot" style="text;strokeColor=none;fillColor=none;html=1;fontSize=24;fontStyle=1;verticalAlign=middle;align=center;" parent="1" vertex="1">
          <mxGeometry x="535" y="170" width="90" height="40" as="geometry" />
        </mxCell>
        <mxCell id="uv9dlAFqdQVn1udtKM22-10" value="" style="ellipse;shape=cloud;whiteSpace=wrap;html=1;" parent="1" vertex="1">
          <mxGeometry x="310" y="300" width="210" height="150" as="geometry" />
        </mxCell>
        <mxCell id="uv9dlAFqdQVn1udtKM22-11" value="" style="ellipse;shape=cloud;whiteSpace=wrap;html=1;" parent="1" vertex="1">
          <mxGeometry x="210" y="470" width="340" height="260" as="geometry" />
        </mxCell>
        <mxCell id="uv9dlAFqdQVn1udtKM22-12" value="LAN&lt;br&gt;192.168.1.0/24" style="text;strokeColor=none;fillColor=none;html=1;fontSize=24;fontStyle=1;verticalAlign=middle;align=center;" parent="1" vertex="1">
          <mxGeometry x="334" y="580" width="100" height="40" as="geometry" />
        </mxCell>
        <mxCell id="uv9dlAFqdQVn1udtKM22-13" value="&lt;font style=&quot;font-size: 14px;&quot;&gt;Host only&lt;br&gt;network&lt;br&gt;10.1.1.0&lt;br&gt;&lt;/font&gt;" style="text;strokeColor=none;fillColor=none;html=1;fontSize=24;fontStyle=1;verticalAlign=middle;align=center;" parent="1" vertex="1">
          <mxGeometry x="365" y="355" width="100" height="40" as="geometry" />
        </mxCell>
        <mxCell id="uv9dlAFqdQVn1udtKM22-14" style="edgeStyle=orthogonalEdgeStyle;rounded=0;orthogonalLoop=1;jettySize=auto;html=1;entryX=0.16;entryY=0.55;entryDx=0;entryDy=0;entryPerimeter=0;strokeWidth=2;" parent="1" source="uv9dlAFqdQVn1udtKM22-15" target="uv9dlAFqdQVn1udtKM22-11" edge="1">
          <mxGeometry relative="1" as="geometry">
            <Array as="points">
              <mxPoint x="150" y="613" />
            </Array>
          </mxGeometry>
        </mxCell>
        <mxCell id="uv9dlAFqdQVn1udtKM22-15" value="&lt;font size=&quot;1&quot; style=&quot;&quot;&gt;&lt;b style=&quot;font-size: 12px;&quot;&gt;BR01&lt;/b&gt;&lt;/font&gt;" style="whiteSpace=wrap;html=1;shape=mxgraph.basic.cloud_rect" parent="1" vertex="1">
          <mxGeometry x="110" y="430" width="80" height="40" as="geometry" />
        </mxCell>
        <mxCell id="uv9dlAFqdQVn1udtKM22-16" value="&lt;b&gt;NIC ens18&lt;/b&gt;" style="whiteSpace=wrap;html=1;shape=mxgraph.basic.cloud_rect" parent="1" vertex="1">
          <mxGeometry x="550" y="230" width="70" height="35" as="geometry" />
        </mxCell>
        <mxCell id="uv9dlAFqdQVn1udtKM22-17" value="&lt;b&gt;NIC ens18&lt;/b&gt;" style="whiteSpace=wrap;html=1;shape=mxgraph.basic.cloud_rect" parent="1" vertex="1">
          <mxGeometry x="150" y="235" width="70" height="35" as="geometry" />
        </mxCell>
        <mxCell id="uv9dlAFqdQVn1udtKM22-18" value="&lt;b&gt;NIC ens19&lt;/b&gt;" style="whiteSpace=wrap;html=1;shape=mxgraph.basic.cloud_rect" parent="1" vertex="1">
          <mxGeometry x="240" y="235" width="70" height="35" as="geometry" />
        </mxCell>
        <mxCell id="uv9dlAFqdQVn1udtKM22-19" value="VM" style="text;strokeColor=none;fillColor=none;html=1;fontSize=24;fontStyle=1;verticalAlign=middle;align=center;" parent="1" vertex="1">
          <mxGeometry x="50" y="130" width="100" height="40" as="geometry" />
        </mxCell>
        <mxCell id="uv9dlAFqdQVn1udtKM22-20" value="VM" style="text;strokeColor=none;fillColor=none;html=1;fontSize=24;fontStyle=1;verticalAlign=middle;align=center;" parent="1" vertex="1">
          <mxGeometry x="400" y="130" width="100" height="40" as="geometry" />
        </mxCell>
      </root>
    </mxGraphModel>
  </diagram>
</mxfile>
